<svg width="412" height="510" version="1.1" xmlns="http://www.w3.org/2000/svg" desc="Created with imagetracer.js version 1.2.6" ><path fill="rgb(34,103,178)" stroke="rgb(34,103,178)" stroke-width="1" opacity="0.9254901960784314" d="M 47 225 L 58.5 225 L 60 226.5 L 60 238.5 L 58.5 239 L 57.5 240 L 47 240 L 47 225 Z " /><path fill="rgb(34,103,178)" stroke="rgb(34,103,178)" stroke-width="1" opacity="0.9254901960784314" d="M 94.5 225 L 99 228.5 L 128 279.5 L 128 284 L 114.5 284 L 113 282.5 L 95.5 252 L 91 257.5 L 77 284 L 63.5 284 L 62 282.5 L 94.5 225 Z " /><path fill="rgb(34,103,178)" stroke="rgb(34,103,178)" stroke-width="1" opacity="0.9254901960784314" d="M 110.5 225 L 163.5 225 L 166 227.5 L 166 237.5 L 163.5 240 L 144 240 L 144 283.5 L 143.5 284 L 131 284 L 130 281.5 L 130 240 L 111.5 240 L 109 239 L 109 226.5 L 110.5 225 Z " /><path fill="rgb(34,103,178)" stroke="rgb(34,103,178)" stroke-width="1" opacity="0.9254901960784314" d="M 178.5 225 L 183 228.5 L 212 279.5 L 212 284 L 198.5 284 L 197 282.5 L 179.5 252 Q 168.4 266.6 161 284 L 147.5 284 L 146 282.5 L 178.5 225 Z " /><path fill="rgb(34,103,178)" stroke="rgb(34,103,178)" stroke-width="1" opacity="0.9254901960784314" d="M 216.5 225 L 226.5 225 L 228 226.5 L 228 268.5 L 229.5 270 L 256.5 270 L 258 271.5 L 258 283.5 L 257.5 284 L 215 284 L 214 281.5 L 214 227.5 L 216.5 225 Z " /><path fill="rgb(34,103,178)" stroke="rgb(34,103,178)" stroke-width="1" opacity="0.9254901960784314" d="M 239.5 225 L 251.5 225 L 257 230.5 L 266.5 243 L 269 241.5 L 282.5 225 L 294.5 225 L 297 227.5 L 274 256.5 L 274 282.5 L 272.5 284 L 261.5 284 L 260 282.5 L 260 257.5 L 237 228.5 L 237 226 L 239.5 225 Z " /><path fill="rgb(34,103,178)" stroke="rgb(34,103,178)" stroke-width="1" opacity="0.9254901960784314" d="M 307.5 225 L 347.5 225 L 350 227.5 L 350 237.5 L 347.5 240 L 310.5 240 L 309.5 239 L 307 240 Q 305.5 246.3 309.5 248 L 338.5 248 L 346 252.5 L 350 262.5 L 350 269.5 Q 348.5 278 342.5 282 L 338.5 284 L 294.5 284 L 293 282.5 L 293 271.5 L 294.5 270 L 334.5 270 L 336 268.5 L 335 262 L 305.5 262 Q 299 260.5 296 255.5 Q 291.5 250 293 238.5 Q 294.9 230.8 300.5 227 L 307.5 225 Z " /><path fill="rgb(34,103,178)" stroke="rgb(34,103,178)" stroke-width="1" opacity="0.9254901960784314" d="M 353.5 225 L 406.5 225 L 408 226.5 L 408 238.5 L 406.5 239 L 405.5 240 L 389.5 240 Q 388.3 237.8 387 240.5 L 387 282.5 L 385.5 284 L 374.5 284 L 373 282.5 L 373 240 L 354.5 240 L 352 239 L 352 226.5 L 353.5 225 Z " /><path fill="rgb(34,103,178)" stroke="rgb(34,103,178)" stroke-width="1" opacity="0.9254901960784314" d="M 18.5 226 L 45 226 L 45 239 L 25.5 239 L 19 243.5 L 17 247.5 L 17 262.5 L 21.5 269 L 27.5 271 L 45 271 L 45 284 L 20.5 284 Q 11.3 282.3 7 275.5 L 4 266.5 L 4 243.5 L 5 238.5 L 10.5 230 L 18.5 226 Z " /><path fill="rgb(34,103,178)" stroke="rgb(34,103,178)" stroke-width="1" opacity="0.9254901960784314" d="M 47 270 L 58.5 270 L 60 271.5 L 60 284 L 47 284 L 47 270 Z " /><path fill="rgb(0,0,0)" stroke="rgb(0,0,0)" stroke-width="1" opacity="0" d="M 0 0 L 412 0 L 412 510 L 0 510 L 0 0 Z M 47 225 L 47 240 L 58 240 L 59 239 L 60 239 L 60 227 L 59 225 L 47 225 Z M 95 225 L 62 283 L 64 284 L 77 284 L 91 258 L 96 252 L 113 283 L 115 284 L 128 284 L 128 280 L 99 229 L 95 225 Z M 111 225 L 109 227 L 109 239 L 112 240 L 130 240 L 130 282 L 131 284 L 144 284 L 144 284 L 144 240 L 164 240 L 166 238 L 166 228 L 164 225 L 111 225 Z M 179 225 L 146 283 L 148 284 L 161 284 Q 168 267 180 252 L 197 283 L 199 284 L 212 284 L 212 280 L 183 229 L 179 225 Z M 217 225 L 214 228 L 214 282 L 215 284 L 258 284 L 258 284 L 258 272 L 257 270 L 230 270 L 228 269 L 228 227 L 227 225 L 217 225 Z M 240 225 L 237 226 L 237 229 L 260 258 L 260 283 L 262 284 L 273 284 L 274 283 L 274 257 L 297 228 L 295 225 L 283 225 L 269 242 L 267 243 L 257 231 L 252 225 L 240 225 Z M 308 225 L 301 227 Q 295 231 293 239 Q 292 250 296 256 Q 299 260 306 262 L 335 262 L 336 269 L 335 270 L 295 270 L 293 272 L 293 283 L 295 284 L 339 284 L 343 282 Q 349 278 350 270 L 350 263 L 346 253 L 339 248 L 310 248 Q 306 246 307 240 L 310 239 L 311 240 L 348 240 L 350 238 L 350 228 L 348 225 L 308 225 Z M 354 225 L 352 227 L 352 239 L 355 240 L 373 240 L 373 283 L 375 284 L 386 284 L 387 283 L 387 241 Q 388 238 390 240 L 406 240 L 407 239 L 408 239 L 408 227 L 407 225 L 354 225 Z M 19 226 L 11 230 L 5 239 L 4 244 L 4 267 L 7 276 Q 11 282 21 284 L 45 284 L 45 271 L 28 271 L 22 269 L 17 263 L 17 248 L 19 244 L 26 239 L 45 239 L 45 226 L 19 226 Z M 47 270 L 47 284 L 60 284 L 60 272 L 59 270 L 47 270 Z " /></svg>